<svg width="20" height="20" viewBox="0 0 20 20" fill="none" xmlns="http://www.w3.org/2000/svg">
<g clip-path="url(#clip0_238_421)">
<path d="M9.01968 9.8972C9.54191 10.2454 10.4582 10.2454 10.9806 9.89716C10.9807 9.89712 10.9808 9.89705 10.9809 9.89701L19.8819 3.96292C19.59 3.11854 18.7875 2.51025 17.8451 2.51025H2.15502C1.21263 2.51025 0.410159 3.11854 0.118164 3.96292L9.01941 9.89705C9.01952 9.89712 9.0196 9.89712 9.01968 9.8972Z" fill="white"/>
<path d="M11.6308 10.8722C11.6307 10.8723 11.6306 10.8724 11.6305 10.8724C11.1734 11.1771 10.5866 11.3295 10 11.3295C9.41328 11.3295 8.82671 11.1772 8.36956 10.8724C8.36948 10.8723 8.36944 10.8723 8.36936 10.8723L0 5.29272V15.3347C0 16.5229 0.966687 17.4895 2.15494 17.4895H17.8451C19.0334 17.4895 20 16.5229 20 15.3347V5.29272L11.6308 10.8722Z" fill="white"/>
</g>
<defs>
<clipPath id="clip0_238_421">
<rect width="20" height="20" fill="white"/>
</clipPath>
</defs>
</svg>
