<svg width="12" height="12" viewBox="0 0 12 12" fill="none" xmlns="http://www.w3.org/2000/svg">
<path d="M0 5.64844H2.49342C2.51651 4.76824 2.62413 3.93902 2.80362 3.1875H0.729445C0.332461 3.92848 0.0518906 4.76344 0 5.64844H0Z" fill="white"/>
<path d="M2.49342 6.35156H0C0.0518906 7.23656 0.332461 8.07152 0.729445 8.8125H2.80364C2.62416 8.06098 2.51651 7.23176 2.49342 6.35156Z" fill="white"/>
<path d="M5.64855 5.64844V3.1875H3.53072C3.3383 3.93225 3.22177 4.76902 3.19629 5.64844H5.64855Z" fill="white"/>
<path d="M5.64842 2.48438V0C4.87857 0.215016 4.19663 1.19866 3.74658 2.48438H5.64842Z" fill="white"/>
<path d="M5.64842 12V9.51562H3.74658C4.19663 10.8013 4.87857 11.785 5.64842 12Z" fill="white"/>
<path d="M6.35156 0V2.48438H8.2534C7.80335 1.19866 7.12141 0.215016 6.35156 0Z" fill="white"/>
<path d="M8.80383 5.64844C8.77833 4.76902 8.66182 3.93225 8.4694 3.1875H6.35156V5.64844H8.80383Z" fill="white"/>
<path d="M5.64855 6.35156H3.19629C3.22179 7.23103 3.3383 8.06775 3.53072 8.8125H5.64855V6.35156Z" fill="white"/>
<path d="M9.00041 2.48454H10.8227C10.095 1.48908 9.07048 0.648094 7.87695 0.251953C8.33565 0.793453 8.7193 1.60774 9.00041 2.48454Z" fill="white"/>
<path d="M2.99951 9.51562H1.17725C1.90496 10.5111 2.92943 11.3521 4.12296 11.7482C3.66427 11.2067 3.28062 10.3924 2.99951 9.51562Z" fill="white"/>
<path d="M2.99951 2.48454C3.2806 1.60774 3.66427 0.793453 4.12294 0.251953C2.92943 0.648094 1.90496 1.48908 1.17725 2.48454H2.99951Z" fill="white"/>
<path d="M9.00038 9.51562C8.7193 10.3924 8.33563 11.2067 7.87695 11.7482C9.07046 11.3521 10.0949 10.5111 10.8227 9.51562H9.00038Z" fill="white"/>
<path d="M6.35156 6.35156V8.8125H8.4694C8.66182 8.06775 8.77835 7.23103 8.80383 6.35156H6.35156Z" fill="white"/>
<path d="M9.19629 3.1875C9.37575 3.93902 9.4834 4.76824 9.50648 5.64844H11.9999C11.948 4.76344 11.6674 3.92848 11.2705 3.1875H9.19629Z" fill="white"/>
<path d="M6.35156 9.51562V12C7.12141 11.785 7.80335 10.8013 8.2534 9.51562H6.35156Z" fill="white"/>
<path d="M11.9999 6.35156H9.50648C9.4834 7.23176 9.37577 8.06098 9.19629 8.8125H11.2705C11.6674 8.07152 11.948 7.23656 11.9999 6.35156Z" fill="white"/>
</svg>
