<svg width="18" height="18" viewBox="0 0 18 18" fill="none" xmlns="http://www.w3.org/2000/svg">
<path d="M0 2C0 1.44772 0.50368 1 1.125 1H16.875C17.4963 1 18 1.44772 18 2C18 2.55228 17.4963 3 16.875 3H1.125C0.50368 3 0 2.55228 0 2Z" fill="#0AA8C1"/>
<path d="M0 16C0 15.4477 0.50368 15 1.125 15H16.875C17.4963 15 18 15.4477 18 16C18 16.5523 17.4963 17 16.875 17H1.125C0.50368 17 0 16.5523 0 16Z" fill="#0AA8C1"/>
<path d="M0 9C0 8.44772 0.50368 8 1.125 8H16.875C17.4963 8 18 8.44772 18 9C18 9.55228 17.4963 10 16.875 10H1.125C0.50368 10 0 9.55228 0 9Z" fill="#0AA8C1"/>
</svg>
