<svg width="18" height="18" viewBox="0 0 18 18" fill="none" xmlns="http://www.w3.org/2000/svg">
<path d="M7.84884 15.6794C9.62791 15.6794 11.2814 15.0732 12.6 14.0697L16.2209 17.6864C16.4302 17.8955 16.7023 18 16.9535 18C17.2047 18 17.4977 17.8955 17.686 17.6864C18.1047 17.2683 18.1047 16.6202 17.686 16.2021L14.086 12.5854C15.0907 11.2683 15.6977 9.61672 15.6977 7.83972C15.6977 3.5122 12.1814 0 7.84884 0C3.51628 0 0 3.5122 0 7.83972C0 12.1672 3.51628 15.6794 7.84884 15.6794ZM7.84884 2.09059C11.0093 2.09059 13.6047 4.66202 13.6047 7.83972C13.6047 11.0174 11.0093 13.5889 7.84884 13.5889C4.68837 13.5889 2.09302 10.9965 2.09302 7.83972C2.09302 4.68293 4.66744 2.09059 7.84884 2.09059Z" fill="#0AA8C1"/>
</svg>
